<?xml version="1.0" standalone="no"?>
<!DOCTYPE svg PUBLIC "-//W3C//DTD SVG 20010904//EN"
 "http://www.w3.org/TR/2001/REC-SVG-20010904/DTD/svg10.dtd">
<svg version="1.0" xmlns="http://www.w3.org/2000/svg"
 width="200.000000pt" height="200.000000pt" viewBox="0 0 200.000000 200.000000"
 preserveAspectRatio="xMidYMid meet">
<metadata>
Created by potrace 1.14, written by Peter Selinger 2001-2017
</metadata>
<g transform="translate(0.000000,200.000000) scale(0.100000,-0.100000)"
fill="#000000" stroke="none">
<path d="M968 1604 c-2 -1 -25 -5 -53 -8 -27 -4 -68 -12 -90 -18 -22 -5 -51
-12 -65 -15 -14 -2 -79 -20 -145 -39 -189 -54 -224 -63 -329 -84 -54 -11 -99
-20 -101 -20 -1 0 -2 -32 -2 -71 l0 -71 46 6 c52 7 65 9 136 26 28 6 60 14 71
16 12 2 100 26 195 53 318 90 408 99 584 62 101 -21 146 -34 352 -97 120 -38
213 -48 283 -33 107 22 102 15 63 101 l-26 59 -41 -7 c-90 -15 -134 -11 -247
22 -151 45 -320 89 -394 105 -51 10 -230 20 -237 13z"/>
<path d="M966 1409 c-90 -10 -187 -32 -372 -84 -147 -42 -340 -87 -406 -94 -3
-1 -6 -32 -7 -69 l0 -69 132 -32 c72 -19 161 -43 197 -54 36 -11 71 -22 79
-23 8 -2 35 -9 60 -17 135 -43 271 -62 440 -62 l123 0 -78 -74 c-245 -229
-457 -334 -654 -324 -170 9 -260 76 -244 180 10 63 77 115 81 62 3 -32 31 -68
59 -75 35 -9 70 9 94 48 26 43 25 87 -3 129 -32 47 -84 63 -161 50 -78 -14
-115 -37 -151 -96 -27 -44 -30 -57 -29 -129 0 -89 16 -134 63 -184 94 -98 343
-130 526 -68 195 67 361 181 581 401 l120 120 -3 -95 c-4 -152 -16 -208 -54
-261 -18 -26 -22 -45 -23 -126 0 -52 2 -100 6 -106 11 -17 126 107 151 163 11
25 28 76 38 114 19 76 45 110 95 126 l33 11 -44 43 c-37 35 -45 49 -45 79 0
71 111 161 271 218 49 17 89 34 88 38 0 3 -12 31 -27 61 l-27 54 -100 1 c-87
0 -116 5 -220 38 -291 93 -449 121 -589 106z m-70 -161 c-8 -64 31 -129 91
-154 101 -43 213 31 213 141 0 19 5 35 10 35 6 0 81 -23 166 -52 174 -57 174
-58 64 -101 -192 -75 -389 -92 -590 -51 -14 3 -38 8 -55 11 -44 7 -296 81
-303 87 -3 3 -3 8 -1 9 10 9 367 105 391 106 14 1 17 -6 14 -31z"/>
</g>
</svg>
